<svg width="101" height="125" viewBox="0 0 101 125" fill="none" xmlns="http://www.w3.org/2000/svg">
<path d="M85.1954 67.674C57.2145 57.5524 27.3288 67.5198 16.4026 72.9164C-10.8431 87.5643 1.79298 114.531 24.4406 121.64C53.8984 130.887 58.3639 118.535 68.1765 114.603C77.9891 110.672 108.04 107.125 93.5635 89.2171C81.0368 73.7212 117.464 79.3465 85.1954 67.674Z" fill="url(#paint0_linear_13512_43151)"/>
<path d="M10.5679 103.533L11.1343 115.711L50.783 114.861L88.1662 101.551L10.5679 103.533Z" fill="url(#paint1_linear_13512_43151)"/>
<path d="M62.961 81.7262L100.627 71.814L88.4186 53.6889L49.9336 61.3354L62.961 81.7262Z" fill="url(#paint2_linear_13512_43151)"/>
<path d="M10.5679 57.0873L47.951 48.5912V61.0522L10.5679 57.0873Z" fill="url(#paint3_linear_13512_43151)"/>
<path d="M10.5679 103.707L50.783 111.463L50.4998 61.0522L41.803 80.8287L10.5679 75.3998V103.707Z" fill="url(#paint4_linear_13512_43151)"/>
<path d="M88.4496 53.6889L47.9512 48.5912V61.2115L50.658 61.6186L88.4496 53.6889Z" fill="url(#paint5_linear_13512_43151)"/>
<path d="M50.2168 111.463L50.5 61.3354L63.0672 81.7108L87.5999 75.1422V101.417L50.2168 111.463Z" fill="url(#paint6_linear_13512_43151)"/>
<path d="M88.5101 19.9824C87.9242 19.4321 88.1911 18.185 89.4427 17.1817C90.6943 16.1785 92.4717 15.7592 92.4717 15.7592C92.4717 15.7592 92.1605 17.5541 91.2438 18.8706C90.3271 20.1871 89.0941 20.5312 88.5101 19.9824Z" fill="#EBEBEB"/>
<path d="M92.4683 15.7561C91.9301 16.3739 91.3759 16.9747 90.82 17.5741C90.2641 18.1734 89.6945 18.7639 89.1089 19.3374C89.6471 18.7196 90.2011 18.1154 90.757 17.5161C91.3129 16.9167 91.8825 16.3263 92.4683 15.7561Z" fill="#263238"/>
<path d="M89.0122 18.317C89.4855 18.1124 89.9803 17.9617 90.4873 17.8676C90.252 17.9714 90.0105 18.0604 89.7641 18.134C89.5173 18.2096 89.2662 18.2707 89.0122 18.317Z" fill="#263238"/>
<path d="M91.0604 17.2556C91.0412 17.7942 90.9642 18.3292 90.8306 18.8513C90.8509 18.3108 90.9294 17.774 91.0649 17.2504L91.0604 17.2556Z" fill="#263238"/>
<path d="M90.877 16.7795C91.115 16.6771 91.3735 16.6312 91.6322 16.6455C91.514 16.6973 91.3898 16.7345 91.2625 16.7563C91.1353 16.7787 91.0059 16.7865 90.877 16.7795Z" fill="#263238"/>
<path d="M93.085 21.9723C93.8871 22.0172 94.6036 20.9622 94.4658 19.3655C94.328 17.7689 93.4085 16.1851 93.4085 16.1851C93.4085 16.1851 92.3151 17.6515 91.9947 19.2174C91.6743 20.7832 92.2797 21.9277 93.085 21.9723Z" fill="#EBEBEB"/>
<path d="M93.4085 16.1852C93.3197 16.9919 93.2814 17.8181 93.2294 18.6354C93.1773 19.4527 93.1467 20.2702 93.1373 21.0878C93.2262 20.2811 93.2662 19.4565 93.3167 18.6409C93.3672 17.8253 93.3948 17.0113 93.4085 16.1852Z" fill="#263238"/>
<path d="M93.932 20.454C93.8437 20.213 93.7415 19.9774 93.6258 19.7483C93.5108 19.5175 93.3815 19.2941 93.2386 19.0794C93.3264 19.3205 93.4287 19.5562 93.5447 19.7851C93.6606 20.0154 93.7899 20.2388 93.932 20.454Z" fill="#263238"/>
<path d="M93.2967 18.237C92.9191 18.6263 92.5839 19.0547 92.2969 19.5149C92.4864 19.3221 92.6641 19.1181 92.8291 18.904C92.9974 18.6907 93.1535 18.468 93.2967 18.237Z" fill="#263238"/>
<path d="M93.7629 18.0506C93.7173 17.9288 93.6576 17.8129 93.5849 17.7052C93.5134 17.5975 93.43 17.4981 93.3364 17.4089C93.4284 17.6522 93.5741 17.8716 93.7629 18.0506Z" fill="#263238"/>
<path d="M92.9525 15.9967C92.8987 16.1232 92.8085 16.2308 92.6934 16.306C92.5784 16.3811 92.4436 16.4205 92.3061 16.419C92.1687 16.4175 92.0348 16.3752 91.9214 16.2976C91.808 16.2199 91.7202 16.1104 91.6691 15.9828C91.618 15.8552 91.6059 15.7153 91.6343 15.5809C91.6628 15.4464 91.7305 15.3234 91.8289 15.2275C91.9273 15.1315 92.052 15.0669 92.1871 15.0419C92.3222 15.0168 92.4618 15.0324 92.588 15.0867C92.7568 15.1593 92.89 15.2958 92.9583 15.4664C93.0266 15.637 93.0245 15.8277 92.9525 15.9967Z" fill="#455A64"/>
<path d="M94.2286 16.5438C94.1747 16.67 94.0845 16.7775 93.9695 16.8525C93.8545 16.9275 93.7198 16.9668 93.5825 16.9653C93.4452 16.9638 93.3114 16.9217 93.1981 16.8442C93.0847 16.7666 92.9969 16.6573 92.9457 16.5298C92.8945 16.4024 92.8823 16.2627 92.9105 16.1283C92.9387 15.9939 93.0061 15.8709 93.1042 15.7748C93.2023 15.6788 93.3267 15.6139 93.4617 15.5885C93.5966 15.5632 93.7361 15.5783 93.8624 15.6322C93.9463 15.668 94.0223 15.7199 94.0862 15.7851C94.15 15.8503 94.2004 15.9274 94.2344 16.0121C94.2684 16.0967 94.2854 16.1873 94.2844 16.2785C94.2834 16.3697 94.2645 16.4599 94.2286 16.5438Z" fill="#455A64"/>
<path d="M65.2266 18.6873L64.9859 18.755L65.2266 18.6873ZM33.5676 26.2903L33.8104 26.2306L33.5676 26.2903ZM90.9764 21.9819L91.1052 21.7676L90.6767 21.51L90.5479 21.7242L90.9764 21.9819ZM44.4357 65.0062L44.6053 64.8225L44.2378 64.4834L44.0683 64.6672L44.4357 65.0062ZM46.0591 62.4417L45.8951 62.6304L46.2726 62.9584L46.4365 62.7696L46.0591 62.4417ZM48.3761 60.4763L48.5351 60.2833L48.1492 59.9654L47.9902 60.1584L48.3761 60.4763ZM49.8641 57.8248L49.71 58.0217L50.1037 58.3299L50.2578 58.133L49.8641 57.8248ZM52.0766 55.7498L52.2258 55.5492L51.8246 55.2508L51.6754 55.4514L52.0766 55.7498ZM53.4288 53.0308L53.2847 53.2351L53.6934 53.5232L53.8374 53.3189L53.4288 53.0308ZM55.5357 50.8406L55.6742 50.6324L55.2579 50.3554L55.1194 50.5636L55.5357 50.8406ZM56.7385 48.0536L56.6061 48.2656L57.0302 48.5305L57.1626 48.3184L56.7385 48.0536ZM58.7136 45.7459L58.8392 45.5298L58.4069 45.2786L58.2813 45.4947L58.7136 45.7459ZM59.7364 42.8869L59.6186 43.1074L60.0595 43.343L60.1774 43.1226L59.7364 42.8869ZM61.5415 40.4435L61.6503 40.2184L61.2002 40.0008L61.0914 40.2259L61.5415 40.4435ZM62.3273 37.5125L62.2292 37.7424L62.6891 37.9387L62.7872 37.7088L62.3273 37.5125ZM63.8941 34.909L63.9794 34.674L63.5093 34.5034L63.4241 34.7385L63.8941 34.909ZM64.3495 31.9066L64.28 32.1468L64.7604 32.2857L64.8298 32.0455L64.3495 31.9066ZM65.5529 29.12L65.6026 28.875L65.1126 28.7756L65.0629 29.0206L65.5529 29.12ZM65.5109 26.088L65.4862 26.3368L65.9837 26.3863L66.0085 26.1376L65.5109 26.088ZM66.1242 23.1153L66.1173 22.8654L65.6175 22.879L65.6244 23.129L66.1242 23.1153ZM65.3202 20.1914L65.366 20.4372L65.8575 20.3455L65.8117 20.0998L65.3202 20.1914ZM64.9791 17.1403L64.89 16.9068L64.4228 17.085L64.512 17.3186L64.9791 17.1403ZM63.1689 14.6298L63.3031 14.8408L63.725 14.5725L63.5909 14.3615L63.1689 14.6298ZM61.6481 11.9377L61.4711 11.7611L61.118 12.1151L61.295 12.2917L61.6481 11.9377ZM58.9523 10.423L59.1636 10.5566L59.4308 10.134L59.2195 10.0004L58.9523 10.423ZM56.4373 8.62256L56.2033 8.53474L56.0276 9.00288L56.2617 9.0907L56.4373 8.62256ZM53.3575 8.3026L53.6037 8.34599L53.6905 7.85358L53.4443 7.81018L53.3575 8.3026ZM50.3587 7.53239L50.1087 7.53051L50.105 8.0305L50.355 8.03238L50.3587 7.53239ZM47.3449 8.24701L47.5921 8.20996L47.518 7.71549L47.2708 7.75253L47.3449 8.24701ZM44.2539 8.44441L44.0153 8.51886L44.1642 8.99617L44.4028 8.92172L44.2539 8.44441ZM41.6029 10.0442L41.8267 9.9328L41.6038 9.48519L41.38 9.5966L41.6029 10.0442ZM38.7335 11.2094L38.5323 11.3579L38.8292 11.7602L39.0304 11.6117L38.7335 11.2094ZM36.7934 13.6201L36.9618 13.4354L36.5923 13.0985L36.4239 13.2833L36.7934 13.6201ZM34.5905 15.7926L34.4665 16.0097L34.9006 16.2578L35.0247 16.0407L34.5905 15.7926ZM33.8545 18.7941L33.9244 18.554L33.4444 18.4142L33.3744 18.6542L33.8545 18.7941ZM32.8582 21.7189L32.845 21.9685L33.3443 21.995L33.3575 21.7454L32.8582 21.7189ZM33.514 24.7462L33.4763 24.4991L32.982 24.5746L33.0198 24.8217L33.514 24.7462ZM33.8101 27.7754L33.909 28.005L34.3682 27.8071L34.2693 27.5776L33.8101 27.7754ZM35.7201 30.0702L35.573 29.868L35.1687 30.1622L35.3158 30.3644L35.7201 30.0702ZM37.2544 32.6324L37.4298 32.8106L37.7861 32.4598L37.6107 32.2816L37.2544 32.6324ZM39.781 34.2386L39.5864 34.0817L39.2727 34.4711L39.4673 34.6279L39.781 34.2386ZM41.8706 36.3741L42.0797 36.5111L42.3539 36.093L42.1448 35.9559L41.8706 36.3741ZM44.6593 37.4467L44.4388 37.3288L44.2031 37.7698L44.4236 37.8876L44.6593 37.4467ZM47.1017 39.1741L47.3315 39.2727L47.5285 38.8131L47.2988 38.7146L47.1017 39.1741ZM50.0329 39.7519L49.7956 39.6732L49.6382 40.1478L49.8755 40.2265L50.0329 39.7519ZM52.7308 41.039L52.974 41.097L53.0899 40.6106L52.8467 40.5526L52.7308 41.039ZM55.7206 41.1054L55.4732 41.0691L55.4007 41.5638L55.6481 41.6001L55.7206 41.1054ZM58.6 41.8967L58.8496 41.9103L58.8767 41.411L58.6271 41.3975L58.6 41.8967ZM61.5509 41.4189L61.3011 41.4289L61.3211 41.9285L61.5709 41.9185L61.5509 41.4189ZM64.5317 41.6563L64.7794 41.6221L64.7111 41.1268L64.4635 41.1609L64.5317 41.6563ZM67.3308 40.622L67.0877 40.6801L67.204 41.1664L67.4472 41.1083L67.3308 40.622ZM70.2975 40.277L70.5338 40.1954L70.3706 39.7228L70.1343 39.8044L70.2975 40.277ZM72.8485 38.7178L72.6211 38.8217L72.8289 39.2765L73.0563 39.1726L72.8485 38.7178ZM75.7001 37.8125L75.917 37.688L75.6681 37.2544L75.4513 37.3788L75.7001 37.8125ZM77.9243 35.8102L77.7192 35.9531L78.005 36.3634L78.2102 36.2205L77.9243 35.8102ZM80.5702 34.4271L80.763 34.268L80.4447 33.8824L80.2519 34.0415L80.5702 34.4271ZM82.437 32.093L82.2567 32.2662L82.6031 32.6268L82.7834 32.4536L82.437 32.093ZM84.8503 30.3241L85.0182 30.1388L84.6478 29.803L84.4799 29.9882L84.8503 30.3241ZM86.3751 27.7595L86.2191 27.9548L86.6098 28.2669L86.7658 28.0715L86.3751 27.7595ZM88.5402 25.7135L88.6849 25.5097L88.2772 25.2203L88.1325 25.4242L88.5402 25.7135ZM89.7627 22.9949L89.6287 23.206L90.0508 23.474L90.1848 23.263L89.7627 22.9949ZM43.4115 66.0972C43.7428 65.7507 44.0847 65.3867 44.4357 65.0062L44.0683 64.6672C43.7192 65.0455 43.3793 65.4073 43.0501 65.7516L43.4115 66.0972ZM46.4365 62.7696C47.067 62.044 47.7157 61.278 48.3761 60.4763L47.9902 60.1584C47.3325 60.9568 46.6867 61.7194 46.0591 62.4417L46.4365 62.7696ZM50.2578 58.133C50.861 57.3626 51.4688 56.5671 52.0766 55.7498L51.6754 55.4514C51.0701 56.2653 50.4648 57.0575 49.8641 57.8248L50.2578 58.133ZM53.8374 53.3189C54.4087 52.5085 54.9761 51.6815 55.5357 50.8406L55.1194 50.5636C54.5624 51.4006 53.9976 52.224 53.4288 53.0308L53.8374 53.3189ZM57.1626 48.3184C57.6919 47.4708 58.2101 46.6125 58.7136 45.7459L58.2813 45.4947C57.7806 46.3565 57.2652 47.2103 56.7385 48.0536L57.1626 48.3184ZM60.1774 43.1226C60.652 42.2344 61.1079 41.3405 61.5415 40.4435L61.0914 40.2259C60.6609 41.1165 60.208 42.0043 59.7364 42.8869L60.1774 43.1226ZM62.7872 37.7088C63.1857 36.7751 63.556 35.8408 63.8941 34.909L63.4241 34.7385C63.0894 35.661 62.7224 36.5867 62.3273 37.5125L62.7872 37.7088ZM64.8298 32.0455C65.1139 31.0632 65.3566 30.0869 65.5529 29.12L65.0629 29.0206C64.8696 29.973 64.6302 30.9362 64.3495 31.9066L64.8298 32.0455ZM66.0085 26.1376C66.1104 25.1133 66.1513 24.1043 66.1242 23.1153L65.6244 23.129C65.6508 24.095 65.611 25.0828 65.5109 26.088L66.0085 26.1376ZM65.8117 20.0998C65.7184 19.5991 65.6039 19.1055 65.4672 18.6196L64.9859 18.755C65.1184 19.226 65.2295 19.7049 65.3202 20.1914L65.8117 20.0998ZM65.4672 18.6196C65.3232 18.1078 65.1601 17.6148 64.9791 17.1403L64.512 17.3186C64.6875 17.7787 64.8459 18.2574 64.9859 18.755L65.4672 18.6196ZM63.5909 14.3615C63.0177 13.4601 62.3653 12.6532 61.6481 11.9377L61.295 12.2917C61.9863 12.9813 62.6156 13.7596 63.1689 14.6298L63.5909 14.3615ZM59.2195 10.0004C58.3406 9.44444 57.4075 8.98654 56.4373 8.62256L56.2617 9.0907C57.2014 9.44327 58.1036 9.88619 58.9523 10.423L59.2195 10.0004ZM53.4443 7.81018C52.4303 7.63148 51.3964 7.54019 50.3587 7.53239L50.355 8.03238C51.3659 8.03997 52.372 8.12891 53.3575 8.3026L53.4443 7.81018ZM47.2708 7.75253C46.2484 7.90574 45.2375 8.13756 44.2539 8.44441L44.4028 8.92172C45.3619 8.62253 46.3477 8.39643 47.3449 8.24701L47.2708 7.75253ZM41.38 9.5966C40.4478 10.0607 39.5599 10.5995 38.7335 11.2094L39.0304 11.6117C39.8324 11.0198 40.6953 10.496 41.6029 10.0442L41.38 9.5966ZM36.4239 13.2833C35.7245 14.0505 35.1072 14.8883 34.5905 15.7926L35.0247 16.0407C35.5222 15.1699 36.1174 14.3617 36.7934 13.6201L36.4239 13.2833ZM33.3744 18.6542C33.0922 19.6231 32.9152 20.6459 32.8582 21.7189L33.3575 21.7454C33.4125 20.7106 33.583 19.7258 33.8545 18.7941L33.3744 18.6542ZM33.0198 24.8217C33.0963 25.3227 33.1976 25.8322 33.3249 26.3499L33.8104 26.2306C33.6867 25.727 33.5883 25.2321 33.514 24.7462L33.0198 24.8217ZM33.3249 26.3499C33.4399 26.8178 33.6027 27.2942 33.8101 27.7754L34.2693 27.5776C34.0716 27.1189 33.9181 26.6688 33.8104 26.2306L33.3249 26.3499ZM35.3158 30.3644C35.8695 31.1253 36.5192 31.8857 37.2544 32.6324L37.6107 32.2816C36.891 31.5507 36.2577 30.8091 35.7201 30.0702L35.3158 30.3644ZM39.4673 34.6279C40.2151 35.2304 41.0182 35.8151 41.8706 36.3741L42.1448 35.9559C41.3056 35.4057 40.5157 34.8305 39.781 34.2386L39.4673 34.6279ZM44.4236 37.8876C45.2813 38.3461 46.1755 38.777 47.1017 39.1741L47.2988 38.7146C46.3858 38.3231 45.5044 37.8985 44.6593 37.4467L44.4236 37.8876ZM49.8755 40.2265C50.8038 40.5343 51.7568 40.8068 52.7308 41.039L52.8467 40.5526C51.887 40.3238 50.9478 40.0553 50.0329 39.7519L49.8755 40.2265ZM55.6481 41.6001C56.6172 41.7421 57.6023 41.8425 58.6 41.8967L58.6271 41.3975C57.645 41.3441 56.6751 41.2453 55.7206 41.1054L55.6481 41.6001ZM61.5709 41.9185C62.5503 41.8792 63.5382 41.7931 64.5317 41.6563L64.4635 41.1609C63.4863 41.2955 62.5145 41.3802 61.5509 41.4189L61.5709 41.9185ZM67.4472 41.1083C68.3958 40.8814 69.3467 40.6054 70.2975 40.277L70.1343 39.8044C69.199 40.1274 68.2637 40.3988 67.3308 40.622L67.4472 41.1083ZM73.0563 39.1726C73.9406 38.7686 74.8226 38.3161 75.7001 37.8125L75.4513 37.3788C74.587 37.8748 73.7188 38.3202 72.8485 38.7178L73.0563 39.1726ZM78.2102 36.2205C79.0027 35.6682 79.7899 35.0711 80.5702 34.4271L80.2519 34.0415C79.482 34.677 78.7056 35.2659 77.9243 35.8102L78.2102 36.2205ZM82.7834 32.4536C83.4797 31.7847 84.1691 31.0753 84.8503 30.3241L84.4799 29.9882C83.8062 30.7312 83.1249 31.4322 82.437 32.093L82.7834 32.4536ZM86.7658 28.0715C87.3651 27.3212 87.9568 26.5356 88.5402 25.7135L88.1325 25.4242C87.5544 26.2387 86.9683 27.0167 86.3751 27.7595L86.7658 28.0715ZM90.1848 23.263C90.4507 22.8442 90.7146 22.4172 90.9764 21.9819L90.5479 21.7242C90.2882 22.1561 90.0264 22.5797 89.7627 22.9949L90.1848 23.263Z" fill="url(#paint7_linear_13512_43151)"/>
<path d="M10.5987 57.0873L0.372559 75.2125L41.8962 81.443L50.4999 61.3354L10.5987 57.0873Z" fill="url(#paint8_linear_13512_43151)"/>
<defs>
<linearGradient id="paint0_linear_13512_43151" x1="60.7991" y1="54.247" x2="36.4272" y2="131.06" gradientUnits="userSpaceOnUse">
<stop stop-color="#C1C1C1"/>
<stop offset="1" stop-color="#777777"/>
</linearGradient>
<linearGradient id="paint1_linear_13512_43151" x1="14.816" y1="110.896" x2="29.7006" y2="102.198" gradientUnits="userSpaceOnUse">
<stop stop-color="#525252" stop-opacity="0"/>
<stop offset="1" stop-color="#464646"/>
</linearGradient>
<linearGradient id="paint2_linear_13512_43151" x1="80.9017" y1="49.607" x2="71.1447" y2="84.9596" gradientUnits="userSpaceOnUse">
<stop stop-color="#FFFCFC"/>
<stop offset="1" stop-color="#9D9D9D"/>
</linearGradient>
<linearGradient id="paint3_linear_13512_43151" x1="47.951" y1="43.7767" x2="52.5925" y2="86.6405" gradientUnits="userSpaceOnUse">
<stop stop-color="#D0D0D0"/>
<stop offset="1" stop-color="#373737"/>
</linearGradient>
<linearGradient id="paint4_linear_13512_43151" x1="35.1348" y1="53.7131" x2="4.37966" y2="102.88" gradientUnits="userSpaceOnUse">
<stop stop-color="#646464"/>
<stop offset="1" stop-color="#A4A4A4"/>
</linearGradient>
<linearGradient id="paint5_linear_13512_43151" x1="75.4221" y1="44.9095" x2="73.0834" y2="69.7068" gradientUnits="userSpaceOnUse">
<stop stop-color="#D0D0D0"/>
<stop offset="1" stop-color="#444444"/>
</linearGradient>
<linearGradient id="paint6_linear_13512_43151" x1="73.0536" y1="54.362" x2="41.8606" y2="101.244" gradientUnits="userSpaceOnUse">
<stop stop-color="#424242"/>
<stop offset="1" stop-color="#A4A4A4"/>
</linearGradient>
<linearGradient id="paint7_linear_13512_43151" x1="62.9272" y1="-3.68243" x2="45.882" y2="62.1801" gradientUnits="userSpaceOnUse">
<stop stop-color="#565656"/>
<stop offset="1" stop-color="#9D9D9D"/>
</linearGradient>
<linearGradient id="paint8_linear_13512_43151" x1="-3.02591" y1="54.2553" x2="50.442" y2="78.9213" gradientUnits="userSpaceOnUse">
<stop stop-color="white"/>
<stop offset="1" stop-color="#A4A4A4"/>
</linearGradient>
</defs>
</svg>
